<?xml version="1.0" encoding="UTF-8"?>
<svg version="1.1" viewBox="0 0 1096 984" width="1280" height="1280" xmlns="http://www.w3.org/2000/svg">
<path transform="translate(376,60)" d="m0 0h367l25 1 20 5 15 6 13 8 9 7 10 9 12 15 6 10 9 24 2 13 1 10v13l-2 18-5 15-2 4v3l22 2 15 3 17 6 12 7 14 10 14 14 10 15 8 15 5 16 2 11v31l-5 21-6 13-9 15-15 23-11 18-22 34-18 28-12 19-10 16-12 18-7 10-11 12-10 9-13 8-14 7-18 5-21 2h-330l-18 1-13 4-10 6-9 9-9 15-12 19-13 19-10 16-3 3v3l24 1 191 1 144 1 17 3 15 5 15 8 11 8 10 9 7 7 11 16 7 14 6 18 2 11v28l-4 18-5 13-7 14-10 13-11 12-16 12-16 8-16 5-19 3-20 1h-131l-139-1-98-1-16-3-12-4-16-8-14-10-14-14-7-10-8-13-6-15-4-13-1-6v-29l2-12 5-15 3-8-21-1-22-5-13-5-14-8-10-8-8-7-9-11-7-10-8-15-5-15-3-12-1-7v-19l3-17 6-17 7-14 12-19 9-14 22-34 10-16 10-15 16-26 12-18 7-11 12-18 9-11 10-10 14-10 16-8 17-5 15-2h349l11-1 12-5 9-7 7-7 30-46 12-20 5-7v-3l-212-1-146-1-20-3-17-6-11-6-16-12-10-10-11-15-9-16-5-15-3-16v-26l4-20 5-13 6-11 8-12 9-11 10-9 13-9 15-8 13-4 8-2zm4 64-16 6-10 7-8 9-5 10-2 8v17l5 14 6 9 8 8 14 7 12 2h315l39 1 19 1h19l6-4 9-16 6-10 3-10 1-6v-10l-3-11-5-10-11-12-9-5-13-4-207-1zm439 162-7 2-11 18-12 18-15 24-11 17-12 19-12 18-11 12-12 11-14 9-16 7-16 4-17 2h-347l-12 3-14 7-8 8-15 23-14 22-11 17-14 22-12 19-10 16-26 39-9 15-2 6-1 7v14l3 11 7 12 7 7 11 7 9 3 6 1h50l7-3 14-23 8-13 8-12 7-10 13-21 14-22 12-17 11-12 10-8 14-8 13-6 15-4 20-2h347l12-3 10-5 8-6 11-15 14-23 10-15 10-16 22-34 10-16 8-12 12-19 10-15 8-16 2-9v-12l-3-13-7-11-7-8-12-7-9-3-6-1zm-529 485-8 10-9 15-3 9-2 11v8l3 13 6 11 4 5 10 8 12 5 13 2h375l11-4 10-6 5-5 7-10 4-9 2-10v-10l-4-14-6-10-6-7-9-6-12-5-5-1z" fill="#FDFDFD"/>
<path transform="translate(376,60)" d="m0 0h367l25 1 20 5 15 6 13 8 9 7 10 9 12 15 6 10 9 24 2 13 1 10v13l-2 18-5 15-2 4v3l22 2 15 3 17 6 12 7 14 10 14 14 10 15 4 10 6 18 3 20v15l-4 23-6 15-8 15-13 20-14 22-12 19-15 23-28 44-9 14-18 27-12 14-14 11-16 9-21 7-11 2-21 1h-339l-12 3-11 6-7 6-9 13-12 19-9 13-2 1h-71l4-7 9-13 12-19 15-24 13-19 12-13 11-9 14-8 13-6 15-4 20-2h347l12-3 10-5 6-5h2l2-4 8-11 14-23 10-15 10-16 22-34 10-16 8-12 12-19 10-15 8-16 2-9v-12l-3-13-7-11-6-7-10-6-1-2-11-4-9-2h-126l-1 4-1-1-212-1-146-1-20-3-17-6-11-6-16-12-10-10-11-15-9-16-5-15-3-16v-26l4-20 5-13 6-11 8-12 9-11 10-9 13-9 15-8 13-4 8-2zm4 64-16 6-10 7-8 9-5 10-2 8v17l5 14 6 9 8 8 14 7 12 2h315l39 1 19 1h19l6-4 9-16 6-10 3-10 1-6v-10l-3-11-5-10-11-12-9-5-13-4-207-1z" fill="#FDFDFD"/>
<path transform="translate(811,284)" d="m0 0h55l12 3 6 3-2 1-9-3-6-1h-48l-6 1-11 18-12 18-15 24-11 17-12 19-12 18-11 12-7 7-13 10-15 8-15 5-15 3-11 1h-347l-12 3-14 7-7 7-15 23-14 22-11 17-14 22-12 19-10 16-26 39-9 15-2 6-1 7v14l3 13-3-3-3-10-1-4v-11l3-13 8-14 13-20 11-17 10-16 16-25 15-23 10-16 15-23 13-20 4-5 8-6 10-5 7-2 359-1 18-3 15-5 16-8 12-9 10-9 9-11 9-14 13-20 14-22 10-16 7-11 12-19 7-11z" fill="#060606"/>
<path transform="translate(960,280)" d="m0 0 3 3 7 15 4 16 1 6v31l-5 21-6 13-9 15-15 23-11 18-22 34-18 28-12 19-10 16-12 18-7 10-11 12-10 9-13 8-14 7-18 5-21 2h-330l-18 1-13 4-10 6-9 9-9 15-12 19-13 19-10 16-3 3-1 3h-4l1-4 14-22 10-15 13-20 7-11 8-11 10-8 11-5 9-2h339l21-1 18-4 16-6 14-8 10-8 6-5 9-11 18-27 10-16 11-17 16-25 15-23 24-38 16-25 9-17 4-11 4-23v-15l-3-20-6-18-3-6z" fill="#060606"/>
<path transform="translate(809,283)" d="m0 0h54v1l-52 1-6 9-12 19-6 10-1-3h-65l-3-1 2-6 13-20 3-5 1-4z" fill="#B6B6B6"/>
<path transform="translate(350,667)" d="m0 0v3l-15 24-5 7-1 3h-68l-2-1 1-5 16-26 3-4z" fill="#B6B6B6"/>
<path transform="translate(779,765)" d="m0 0 3 3 6 14 4 13 2 11v28l-4 18-5 13-7 14-10 13-11 12-16 12-16 8-16 5-19 3-20 1h-131l-139-1-98-1-16-3-12-4-2-2 9 2 19 4 231 1h157l19-3 17-6 17-9 13-10 9-9 11-15 8-16 6-18 2-11v-29l-4-18-5-14z" fill="#060606"/>
<path transform="translate(287,768)" d="m0 0h382l18 1 13 4 3 3-10-3-5-1h-398l-8 11-8 13-3 9-2 11v8l3 13 2 6-3-3-4-10-2-10v-8l3-13 9-16 9-14z" fill="#060606"/>
<path transform="translate(384,121)" d="m0 0h152l215 1 13 2 12 5-3 1-13-4-207-1h-173l-16 6-10 7-7 8-5 10-2 8v17l5 14-1 2-5-10-2-7-1-11 2-12 4-10 8-11 10-8 8-4 7-2z" fill="#060606"/>
<path transform="translate(331,270)" d="m0 0 6 2 12 5 15 4 12 1 319 1 41 1-1 2h-212l-146-1-20-3-17-6-9-5z" fill="#060606"/>
<path transform="translate(855,129)" d="m0 0 2 2 6 18 2 19v13l-2 18-5 15-3 6h-3l1-5 5-14 3-13 1-12v-10l-2-17-5-17z" fill="#060606"/>
<path transform="translate(155,757)" d="m0 0 9 3 17 5 6 1 23 1 2 1v2h-19l-22-5-13-5z" fill="#060606"/>
</svg>
